<svg width="16" height="13" viewBox="0 0 16 13" fill="none" xmlns="http://www.w3.org/2000/svg">
<g id="Frame" clip-path="url(#clip0_6464_11051)">
<g id="Group">
<path id="Vector" d="M16 0.5H0V12.4726H16V0.5Z" fill="#C8102E"/>
<g id="Group_2">
<path id="Vector_2" d="M7.27717 0.5H0V5.32192H7.27717V0.5Z" fill="white"/>
<g id="Group_3">
<path id="Vector_3" d="M0 0.5L5.3431 4.4863H4.14847L0 1.37671V0.5Z" fill="#C8102E"/>
<path id="Vector_4" d="M0 1.86914V4.51298H3.56239L0 1.86914Z" fill="#012169"/>
<path id="Vector_5" d="M1.82178 0.5L6.69113 4.14384V0.5H1.82178Z" fill="#012169"/>
</g>
</g>
<g id="Group_4">
<path id="Vector_6" d="M8.72283 5.32227L16 5.32227V0.500348L8.72283 0.500348V5.32227Z" fill="white"/>
<g id="Group_5">
<path id="Vector_7" d="M15.9998 0.5L10.6567 4.4863H11.8514L15.9998 1.37671V0.5Z" fill="#C8102E"/>
<path id="Vector_8" d="M15.9999 1.86914V4.51298H12.4375L15.9999 1.86914Z" fill="#012169"/>
<path id="Vector_9" d="M14.1779 0.5L9.30859 4.14384V0.5H14.1779Z" fill="#012169"/>
</g>
</g>
<g id="Group_6">
<g id="Group_7">
<path id="Vector_10" d="M8.72332 12.5L16.0005 12.5V7.67808L8.72332 7.67808V12.5Z" fill="white"/>
<g id="Group_8">
<path id="Vector_11" d="M16.0003 12.5L10.6572 8.51367H11.8519L16.0003 11.6233V12.5Z" fill="#C8102E"/>
<path id="Vector_12" d="M16.0004 11.1302V8.48633H12.438L16.0004 11.1302Z" fill="#012169"/>
<path id="Vector_13" d="M14.1784 12.4993L9.30908 8.85547V12.4993H14.1784Z" fill="#012169"/>
</g>
</g>
<g id="Group_9">
<path id="Vector_14" d="M7.27717 7.67773H0V12.4997H7.27717V7.67773Z" fill="white"/>
<g id="Group_10">
<path id="Vector_15" d="M0 12.5L5.3431 8.51367H4.14847L0 11.6233V12.5Z" fill="#C8102E"/>
<path id="Vector_16" d="M0 11.1302V8.48633H3.56239L0 11.1302Z" fill="#012169"/>
<path id="Vector_17" d="M1.82178 12.4993L6.69113 8.85547V12.4993H1.82178Z" fill="#012169"/>
</g>
</g>
</g>
</g>
</g>
<defs>
<clipPath id="clip0_6464_11051">
<rect width="16" height="12" fill="white" transform="translate(0 0.5)"/>
</clipPath>
</defs>
</svg>
