<svg width="15" height="17" viewBox="0 0 15 17" fill="none" xmlns="http://www.w3.org/2000/svg">
<g id="trash-can" clip-path="url(#clip0_2418_225)">
<path id="Vector" d="M5.54238 1.73438L5.06426 2.5H9.76113L9.27988 1.73438C9.18926 1.5875 9.02676 1.5 8.85488 1.5H5.96426C5.79238 1.5 5.63301 1.5875 5.53926 1.73438H5.54238ZM10.1299 1.20625L10.9393 2.5H12.4111H13.4111H13.9111C14.1861 2.5 14.4111 2.725 14.4111 3C14.4111 3.275 14.1861 3.5 13.9111 3.5H13.4111V14C13.4111 15.3813 12.2924 16.5 10.9111 16.5H3.91113C2.52988 16.5 1.41113 15.3813 1.41113 14V3.5H0.911133C0.636133 3.5 0.411133 3.275 0.411133 3C0.411133 2.725 0.636133 2.5 0.911133 2.5H1.41113H2.41113H3.88301L4.69238 1.20625C4.96738 0.765625 5.44863 0.5 5.96426 0.5H8.85488C9.37363 0.5 9.85176 0.765625 10.1268 1.20625H10.1299ZM2.41113 3.5V14C2.41113 14.8281 3.08301 15.5 3.91113 15.5H10.9111C11.7393 15.5 12.4111 14.8281 12.4111 14V3.5H2.41113ZM4.91113 6V13C4.91113 13.275 4.68613 13.5 4.41113 13.5C4.13613 13.5 3.91113 13.275 3.91113 13V6C3.91113 5.725 4.13613 5.5 4.41113 5.5C4.68613 5.5 4.91113 5.725 4.91113 6ZM7.91113 6V13C7.91113 13.275 7.68613 13.5 7.41113 13.5C7.13613 13.5 6.91113 13.275 6.91113 13V6C6.91113 5.725 7.13613 5.5 7.41113 5.5C7.68613 5.5 7.91113 5.725 7.91113 6ZM10.9111 6V13C10.9111 13.275 10.6861 13.5 10.4111 13.5C10.1361 13.5 9.91113 13.275 9.91113 13V6C9.91113 5.725 10.1361 5.5 10.4111 5.5C10.6861 5.5 10.9111 5.725 10.9111 6Z" fill="#032B40"/>
</g>
<defs>
<clipPath id="clip0_2418_225">
<rect width="14" height="16" fill="white" transform="translate(0.411133 0.5)"/>
</clipPath>
</defs>
</svg>
