<svg width="37" height="36" viewBox="0 0 37 36" fill="none" xmlns="http://www.w3.org/2000/svg">
<g id="Frame">
<path id="Vector" d="M14 16.3047C14 17.4982 14.4741 18.6428 15.318 19.4867C16.1619 20.3306 17.3065 20.8047 18.5 20.8047C19.6935 20.8047 20.8381 20.3306 21.682 19.4867C22.5259 18.6428 23 17.4982 23 16.3047C23 15.1112 22.5259 13.9666 21.682 13.1227C20.8381 12.2788 19.6935 11.8047 18.5 11.8047C17.3065 11.8047 16.1619 12.2788 15.318 13.1227C14.4741 13.9666 14 15.1112 14 16.3047Z" stroke="white" stroke-width="2" stroke-linecap="round" stroke-linejoin="round"/>
<path id="Vector_2" d="M26.9855 24.7902L20.621 31.1547C20.0585 31.7167 19.2959 32.0323 18.5008 32.0323C17.7056 32.0323 16.943 31.7167 16.3805 31.1547L10.0145 24.7902C8.33634 23.112 7.19351 20.9738 6.73054 18.646C6.26756 16.3183 6.50524 13.9055 7.41351 11.7128C8.32178 9.52015 9.85985 7.64605 11.8332 6.3275C13.8066 5.00895 16.1267 4.30518 18.5 4.30518C20.8734 4.30518 23.1934 5.00895 25.1668 6.3275C27.1402 7.64605 28.6782 9.52015 29.5865 11.7128C30.4948 13.9055 30.7324 16.3183 30.2695 18.646C29.8065 20.9738 28.6637 23.112 26.9855 24.7902Z" stroke="white" stroke-width="2" stroke-linecap="round" stroke-linejoin="round"/>
</g>
</svg>
