<svg width="36" height="36" viewBox="0 0 36 36" fill="none" xmlns="http://www.w3.org/2000/svg">
<g id="Frame">
<path id="Vector" d="M13.5 16.3047C13.5 17.4982 13.9741 18.6428 14.818 19.4867C15.6619 20.3306 16.8065 20.8047 18 20.8047C19.1935 20.8047 20.3381 20.3306 21.182 19.4867C22.0259 18.6428 22.5 17.4982 22.5 16.3047C22.5 15.1112 22.0259 13.9666 21.182 13.1227C20.3381 12.2788 19.1935 11.8047 18 11.8047C16.8065 11.8047 15.6619 12.2788 14.818 13.1227C13.9741 13.9666 13.5 15.1112 13.5 16.3047Z" stroke="#80E4FF" stroke-width="2" stroke-linecap="round" stroke-linejoin="round"/>
<path id="Vector_2" d="M26.4855 24.7902L20.121 31.1547C19.5585 31.7167 18.7959 32.0323 18.0008 32.0323C17.2056 32.0323 16.443 31.7167 15.8805 31.1547L9.51451 24.7902C7.83634 23.112 6.69351 20.9738 6.23054 18.646C5.76756 16.3183 6.00524 13.9055 6.91351 11.7128C7.82178 9.52015 9.35985 7.64605 11.3332 6.3275C13.3066 5.00895 15.6267 4.30518 18 4.30518C20.3734 4.30518 22.6934 5.00895 24.6668 6.3275C26.6402 7.64605 28.1782 9.52015 29.0865 11.7128C29.9948 13.9055 30.2324 16.3183 29.7695 18.646C29.3065 20.9738 28.1637 23.112 26.4855 24.7902Z" stroke="#80E4FF" stroke-width="2" stroke-linecap="round" stroke-linejoin="round"/>
</g>
</svg>
