<svg width="24" height="24" viewBox="0 0 24 24" fill="none" xmlns="http://www.w3.org/2000/svg">
<g id="&#215;&#153;&#215;&#149;&#215;&#158;&#215;&#159; &#215;&#169;&#215;&#153;&#215;&#151;&#215;&#149;&#215;&#170;">
<path id="Vector" d="M14 3V7C14 7.26522 14.1054 7.51957 14.2929 7.70711C14.4804 7.89464 14.7348 8 15 8H19" stroke="black" stroke-linecap="round" stroke-linejoin="round"/>
<path id="Vector_2" d="M17 21H7C6.46957 21 5.96086 20.7893 5.58579 20.4142C5.21071 20.0391 5 19.5304 5 19V5C5 4.46957 5.21071 3.96086 5.58579 3.58579C5.96086 3.21071 6.46957 3 7 3H14L19 8V19C19 19.5304 18.7893 20.0391 18.4142 20.4142C18.0391 20.7893 17.5304 21 17 21Z" stroke="black" stroke-linecap="round" stroke-linejoin="round"/>
<path id="Vector_3" d="M9 12C9 12.1326 9.05268 12.2598 9.14645 12.3536C9.24021 12.4473 9.36739 12.5 9.5 12.5C9.63261 12.5 9.75979 12.4473 9.85355 12.3536C9.94732 12.2598 10 12.1326 10 12V11C10 10.8674 9.94732 10.7402 9.85355 10.6464C9.75979 10.5527 9.63261 10.5 9.5 10.5C9.36739 10.5 9.24021 10.5527 9.14645 10.6464C9.05268 10.7402 9 10.8674 9 11V12ZM9 12C9 13.3261 9.52678 14.5979 10.4645 15.5355C11.4021 16.4732 12.6739 17 14 17M14 17H15C15.1326 17 15.2598 16.9473 15.3536 16.8536C15.4473 16.7598 15.5 16.6326 15.5 16.5C15.5 16.3674 15.4473 16.2402 15.3536 16.1464C15.2598 16.0527 15.1326 16 15 16H14C13.8674 16 13.7402 16.0527 13.6464 16.1464C13.5527 16.2402 13.5 16.3674 13.5 16.5C13.5 16.6326 13.5527 16.7598 13.6464 16.8536C13.7402 16.9473 13.8674 17 14 17Z" stroke="black" stroke-linecap="round" stroke-linejoin="round"/>
</g>
</svg>
