<svg width="28" height="27" viewBox="0 0 28 27" fill="none" xmlns="http://www.w3.org/2000/svg">
<path d="M26.3613 5.35156C26.3613 4.39645 25.982 3.48009 25.3066 2.80469C24.6312 2.12921 23.7141 1.75 22.7588 1.75H5.35156C4.3964 1.75008 3.4801 2.12928 2.80469 2.80469C2.12928 3.4801 1.75008 4.3964 1.75 5.35156V16.957C1.75006 17.9122 2.12928 18.8285 2.80469 19.5039C3.4801 20.1793 4.3964 20.5585 5.35156 20.5586H12.6045C12.7404 20.5586 12.8746 20.5951 12.9912 20.665L19.1084 24.3359V21.3086C19.1084 20.8944 19.4442 20.5586 19.8584 20.5586H22.7588C23.7141 20.5586 24.6312 20.1794 25.3066 19.5039C25.982 18.8285 26.3613 17.9122 26.3613 16.957V5.35156ZM12.0752 6.27246C12.3681 5.97957 12.8428 5.97957 13.1357 6.27246C13.4284 6.56537 13.4286 7.04018 13.1357 7.33301L10.0645 10.4043H19.8584C20.2725 10.4044 20.6084 10.7401 20.6084 11.1543C20.6084 11.5685 20.2725 11.9042 19.8584 11.9043H10.0645L13.1357 14.9756C13.4286 15.2684 13.4284 15.7432 13.1357 16.0361C12.8428 16.329 12.3681 16.329 12.0752 16.0361L7.72363 11.6846C7.58298 11.5439 7.50391 11.3532 7.50391 11.1543C7.50392 10.9554 7.58299 10.7647 7.72363 10.624L12.0752 6.27246ZM27.8613 16.957C27.8613 18.31 27.3238 19.6077 26.3672 20.5645C25.4104 21.5212 24.1119 22.0586 22.7588 22.0586H20.6084V25.6602C20.6084 25.9304 20.4627 26.1803 20.2275 26.3135C19.9924 26.4465 19.7033 26.4427 19.4717 26.3037L12.3965 22.0586H5.35156C3.99857 22.0585 2.70086 21.5212 1.74414 20.5645C0.78743 19.6077 0.250064 18.31 0.25 16.957V5.35156C0.250077 3.99857 0.787426 2.70086 1.74414 1.74414C2.70086 0.787426 3.99857 0.250077 5.35156 0.25H22.7588C24.1119 0.25 25.4104 0.787358 26.3672 1.74414C27.3238 2.70084 27.8613 3.99862 27.8613 5.35156V16.957Z" fill="white"/>
</svg>
