<svg width="41" height="41" viewBox="0 0 41 41" fill="none" xmlns="http://www.w3.org/2000/svg">
<g clip-path="url(#clip0_501_513)">
<g filter="url(#filter0_d_501_513)">
<path d="M10.5889 13.25C10.5889 14.8413 11.221 16.3674 12.3462 17.4926C13.4714 18.6179 14.9976 19.25 16.5889 19.25C18.1802 19.25 19.7063 18.6179 20.8315 17.4926C21.9567 16.3674 22.5889 14.8413 22.5889 13.25C22.5889 11.6587 21.9567 10.1326 20.8315 9.00736C19.7063 7.88214 18.1802 7.25 16.5889 7.25C14.9976 7.25 13.4714 7.88214 12.3462 9.00736C11.221 10.1326 10.5889 11.6587 10.5889 13.25Z" stroke="white" stroke-width="2" stroke-linecap="round" stroke-linejoin="round"/>
<path d="M7.58887 34.25V31.25C7.58887 29.6587 8.22101 28.1326 9.34623 27.0074C10.4714 25.8821 11.9976 25.25 13.5889 25.25H19.5889C21.1802 25.25 22.7063 25.8821 23.8315 27.0074C24.9567 28.1326 25.5889 29.6587 25.5889 31.25V34.25" stroke="white" stroke-width="2" stroke-linecap="round" stroke-linejoin="round"/>
<path d="M27.0889 7.44482C28.3795 7.77528 29.5234 8.52588 30.3403 9.57829C31.1572 10.6307 31.6006 11.9251 31.6006 13.2573C31.6006 14.5896 31.1572 15.8839 30.3403 16.9364C29.5234 17.9888 28.3795 18.7394 27.0889 19.0698" stroke="white" stroke-width="2" stroke-linecap="round" stroke-linejoin="round"/>
<path d="M34.5889 34.2501V31.2501C34.5813 29.9258 34.1357 28.6413 33.3218 27.5967C32.5078 26.5521 31.3711 25.8061 30.0889 25.4751" stroke="white" stroke-width="2" stroke-linecap="round" stroke-linejoin="round"/>
</g>
</g>
<defs>
<filter id="filter0_d_501_513" x="-0.911133" y="2.75" width="44" height="44" filterUnits="userSpaceOnUse" color-interpolation-filters="sRGB">
<feFlood flood-opacity="0" result="BackgroundImageFix"/>
<feColorMatrix in="SourceAlpha" type="matrix" values="0 0 0 0 0 0 0 0 0 0 0 0 0 0 0 0 0 0 127 0" result="hardAlpha"/>
<feOffset dy="4"/>
<feGaussianBlur stdDeviation="2"/>
<feComposite in2="hardAlpha" operator="out"/>
<feColorMatrix type="matrix" values="0 0 0 0 0 0 0 0 0 0 0 0 0 0 0 0 0 0 0.25 0"/>
<feBlend mode="normal" in2="BackgroundImageFix" result="effect1_dropShadow_501_513"/>
<feBlend mode="normal" in="SourceGraphic" in2="effect1_dropShadow_501_513" result="shape"/>
</filter>
<clipPath id="clip0_501_513">
<rect width="40" height="40" fill="white" transform="translate(0.588867 0.75)"/>
</clipPath>
</defs>
</svg>
