<svg width="40" height="41" viewBox="0 0 40 41" fill="none" xmlns="http://www.w3.org/2000/svg">
<path d="M10 13C10 14.5913 10.6321 16.1174 11.7574 17.2426C12.8826 18.3679 14.4087 19 16 19C17.5913 19 19.1174 18.3679 20.2426 17.2426C21.3679 16.1174 22 14.5913 22 13C22 11.4087 21.3679 9.88258 20.2426 8.75736C19.1174 7.63214 17.5913 7 16 7C14.4087 7 12.8826 7.63214 11.7574 8.75736C10.6321 9.88258 10 11.4087 10 13Z" stroke="#80E4FF" stroke-width="2" stroke-linecap="round" stroke-linejoin="round"/>
<path d="M7 34V31C7 29.4087 7.63214 27.8826 8.75736 26.7574C9.88258 25.6321 11.4087 25 13 25H19C20.5913 25 22.1174 25.6321 23.2426 26.7574C24.3679 27.8826 25 29.4087 25 31V34" stroke="#80E4FF" stroke-width="2" stroke-linecap="round" stroke-linejoin="round"/>
<path d="M26.5 7.19501C27.7906 7.52546 28.9346 8.27606 29.7515 9.32847C30.5684 10.3809 31.0118 11.6753 31.0118 13.0075C31.0118 14.3398 30.5684 15.6341 29.7515 16.6865C28.9346 17.739 27.7906 18.4896 26.5 18.82" stroke="#80E4FF" stroke-width="2" stroke-linecap="round" stroke-linejoin="round"/>
<path d="M34 34V31C33.9924 29.6757 33.5469 28.3912 32.7329 27.3466C31.9189 26.302 30.7822 25.5561 29.5 25.225" stroke="#80E4FF" stroke-width="2" stroke-linecap="round" stroke-linejoin="round"/>
</svg>
