<svg width="36" height="36" viewBox="0 0 36 36" fill="none" xmlns="http://www.w3.org/2000/svg">
<path d="M9.375 7.9375C9.375 7.175 9.6779 6.44373 10.2171 5.90457C10.7562 5.3654 11.4875 5.0625 12.25 5.0625H23.75C24.5125 5.0625 25.2438 5.3654 25.7829 5.90457C26.3221 6.44373 26.625 7.175 26.625 7.9375V28.0625C26.625 28.825 26.3221 29.5563 25.7829 30.0954C25.2438 30.6346 24.5125 30.9375 23.75 30.9375H12.25C11.4875 30.9375 10.7562 30.6346 10.2171 30.0954C9.6779 29.5563 9.375 28.825 9.375 28.0625V7.9375Z" stroke="#80E4FF" stroke-width="2" stroke-linecap="round" stroke-linejoin="round"/>
<path d="M16.5625 6.5H19.4375" stroke="#80E4FF" stroke-width="2" stroke-linecap="round" stroke-linejoin="round"/>
<path d="M18 25.1875V25.2015" stroke="#80E4FF" stroke-width="2" stroke-linecap="round" stroke-linejoin="round"/>
</svg>
