<svg width="16" height="13" viewBox="0 0 16 13" fill="none" xmlns="http://www.w3.org/2000/svg">
<g clip-path="url(#clip0_6667_4942)">
<path d="M16 0.5H0V12.4726H16V0.5Z" fill="#C8102E"/>
<path d="M7.27717 0.5H0V5.32192H7.27717V0.5Z" fill="white"/>
<path d="M0 0.5L5.3431 4.4863H4.14847L0 1.37671V0.5Z" fill="#C8102E"/>
<path d="M0 1.87109V4.51493H3.56239L0 1.87109Z" fill="#012169"/>
<path d="M1.82175 0.5L6.6911 4.14384V0.5H1.82175Z" fill="#012169"/>
<path d="M8.72302 5.32422L16.0002 5.32422V0.502301L8.72302 0.502301V5.32422Z" fill="white"/>
<path d="M16 0.5L10.6569 4.4863H11.8515L16 1.37671V0.5Z" fill="#C8102E"/>
<path d="M16.0002 1.87109V4.51493H12.4378L16.0002 1.87109Z" fill="#012169"/>
<path d="M14.1783 0.5L9.30893 4.14384V0.5H14.1783Z" fill="#012169"/>
<path d="M8.72302 12.5039L16.0002 12.5039V7.68199L8.72302 7.68199V12.5039Z" fill="white"/>
<path d="M16 12.5019L10.6569 8.51562H11.8515L16 11.6252V12.5019Z" fill="#C8102E"/>
<path d="M15.9999 11.1321V8.48828H12.4375L15.9999 11.1321Z" fill="#012169"/>
<path d="M14.1781 12.5032L9.30878 8.85938V12.5032H14.1781Z" fill="#012169"/>
<path d="M7.27717 7.67969H0V12.5016H7.27717V7.67969Z" fill="white"/>
<path d="M0 12.5019L5.3431 8.51562H4.14847L0 11.6252V12.5019Z" fill="#C8102E"/>
<path d="M0 11.1321V8.48828H3.56239L0 11.1321Z" fill="#012169"/>
<path d="M1.82178 12.5032L6.69113 8.85938V12.5032H1.82178Z" fill="#012169"/>
</g>
<defs>
<clipPath id="clip0_6667_4942">
<rect width="16" height="12" fill="white" transform="translate(0 0.5)"/>
</clipPath>
</defs>
</svg>
