<svg width="25" height="24" viewBox="0 0 25 24" fill="none" xmlns="http://www.w3.org/2000/svg">
<g id="Icon / Log-out">
<g id="Union">
<path d="M7.5 2C6.70435 2 5.94129 2.31607 5.37868 2.87868C4.81607 3.44129 4.5 4.20435 4.5 5V19C4.5 19.7957 4.81607 20.5587 5.37868 21.1213C5.94129 21.6839 6.70435 22 7.5 22H17.5C18.2957 22 19.0587 21.6839 19.6213 21.1213C20.1839 20.5587 20.5 19.7957 20.5 19V18C20.5 17.4477 20.0523 17 19.5 17C18.9477 17 18.5 17.4477 18.5 18V19C18.5 19.2652 18.3946 19.5196 18.2071 19.7071C18.0196 19.8946 17.7652 20 17.5 20H7.5C7.23478 20 6.98043 19.8946 6.79289 19.7071C6.60536 19.5196 6.5 19.2652 6.5 19V5C6.5 4.73478 6.60536 4.48043 6.79289 4.29289C6.98043 4.10536 7.23478 4 7.5 4H17.5C17.7652 4 18.0196 4.10536 18.2071 4.29289C18.3946 4.48043 18.5 4.73478 18.5 5V6C18.5 6.55228 18.9477 7 19.5 7C20.0523 7 20.5 6.55228 20.5 6V5C20.5 4.20435 20.1839 3.44129 19.6213 2.87868C19.0587 2.31607 18.2956 2 17.5 2H7.5Z" fill="#0059BA"/>
<path d="M17.2071 8.29289C16.8166 7.90237 16.1834 7.90237 15.7929 8.29289C15.4024 8.68342 15.4024 9.31658 15.7929 9.70711L17.0858 11H12.5C11.9477 11 11.5 11.4477 11.5 12C11.5 12.5523 11.9477 13 12.5 13H17.0858L15.7929 14.2929C15.4024 14.6834 15.4024 15.3166 15.7929 15.7071C16.1834 16.0976 16.8166 16.0976 17.2071 15.7071L20.2071 12.7071C20.5976 12.3166 20.5976 11.6834 20.2071 11.2929L17.2071 8.29289Z" fill="#0059BA"/>
</g>
</g>
</svg>
