<svg width="37" height="36" viewBox="0 0 37 36" fill="none" xmlns="http://www.w3.org/2000/svg">
<g id="Frame">
<path id="Vector" d="M5 12C5 10.8065 5.47411 9.66193 6.31802 8.81802C7.16193 7.97411 8.30653 7.5 9.5 7.5H27.5C28.6935 7.5 29.8381 7.97411 30.682 8.81802C31.5259 9.66193 32 10.8065 32 12V24C32 25.1935 31.5259 26.3381 30.682 27.182C29.8381 28.0259 28.6935 28.5 27.5 28.5H9.5C8.30653 28.5 7.16193 28.0259 6.31802 27.182C5.47411 26.3381 5 25.1935 5 24V12Z" stroke="white" stroke-width="2" stroke-linecap="round" stroke-linejoin="round"/>
<path id="Vector_2" d="M5 15H32" stroke="white" stroke-width="2" stroke-linecap="round" stroke-linejoin="round"/>
<path id="Vector_3" d="M11 22.5H11.015" stroke="white" stroke-width="2" stroke-linecap="round" stroke-linejoin="round"/>
<path id="Vector_4" d="M17 22.5H20" stroke="white" stroke-width="2" stroke-linecap="round" stroke-linejoin="round"/>
</g>
</svg>
