<svg width="40" height="40" viewBox="0 0 40 40" fill="none" xmlns="http://www.w3.org/2000/svg">
<g id="Frame">
<path id="Vector" d="M6.66699 13.3332V9.99984C6.66699 9.11578 7.01818 8.26794 7.6433 7.64281C8.26842 7.01769 9.11627 6.6665 10.0003 6.6665H13.3337" stroke="white" stroke-width="2" stroke-linecap="round" stroke-linejoin="round"/>
<path id="Vector_2" d="M6.66699 26.6665V29.9998C6.66699 30.8839 7.01818 31.7317 7.6433 32.3569C8.26842 32.982 9.11627 33.3332 10.0003 33.3332H13.3337" stroke="white" stroke-width="2" stroke-linecap="round" stroke-linejoin="round"/>
<path id="Vector_3" d="M26.667 6.6665H30.0003C30.8844 6.6665 31.7322 7.01769 32.3573 7.64281C32.9825 8.26794 33.3337 9.11578 33.3337 9.99984V13.3332" stroke="white" stroke-width="2" stroke-linecap="round" stroke-linejoin="round"/>
<path id="Vector_4" d="M26.667 33.3332H30.0003C30.8844 33.3332 31.7322 32.982 32.3573 32.3569C32.9825 31.7317 33.3337 30.8839 33.3337 29.9998V26.6665" stroke="white" stroke-width="2" stroke-linecap="round" stroke-linejoin="round"/>
<path id="Vector_5" d="M13.333 20.0002C13.333 19.5581 13.5086 19.1342 13.8212 18.8217C14.1337 18.5091 14.5576 18.3335 14.9997 18.3335H24.9997C25.4417 18.3335 25.8656 18.5091 26.1782 18.8217C26.4907 19.1342 26.6663 19.5581 26.6663 20.0002V25.0002C26.6663 25.4422 26.4907 25.8661 26.1782 26.1787C25.8656 26.4912 25.4417 26.6668 24.9997 26.6668H14.9997C14.5576 26.6668 14.1337 26.4912 13.8212 26.1787C13.5086 25.8661 13.333 25.4422 13.333 25.0002V20.0002Z" stroke="white" stroke-width="2" stroke-linecap="round" stroke-linejoin="round"/>
<path id="Vector_6" d="M16.667 18.3332V14.9998C16.667 14.1158 17.0182 13.2679 17.6433 12.6428C18.2684 12.0177 19.1163 11.6665 20.0003 11.6665C20.8844 11.6665 21.7322 12.0177 22.3573 12.6428C22.9825 13.2679 23.3337 14.1158 23.3337 14.9998V18.3332" stroke="white" stroke-width="2" stroke-linecap="round" stroke-linejoin="round"/>
</g>
</svg>
