<svg width="25" height="24" viewBox="0 0 25 24" fill="none" xmlns="http://www.w3.org/2000/svg">
<g id="Frame">
<path id="Vector" d="M12.666 9V15M15.666 12H9.66602M21.666 12C21.666 13.1819 21.4332 14.3522 20.9809 15.4442C20.5286 16.5361 19.8657 17.5282 19.03 18.364C18.1942 19.1997 17.2021 19.8626 16.1102 20.3149C15.0182 20.7672 13.8479 21 12.666 21C11.4841 21 10.3138 20.7672 9.22186 20.3149C8.12993 19.8626 7.13778 19.1997 6.30205 18.364C5.46633 17.5282 4.80339 16.5361 4.3511 15.4442C3.89881 14.3522 3.66602 13.1819 3.66602 12C3.66602 9.61305 4.61423 7.32387 6.30205 5.63604C7.98988 3.94821 10.2791 3 12.666 3C15.053 3 17.3421 3.94821 19.03 5.63604C20.7178 7.32387 21.666 9.61305 21.666 12Z" stroke="#0A425F" stroke-width="1.5" stroke-linecap="round" stroke-linejoin="round"/>
</g>
</svg>
