<svg width="35" height="35" viewBox="0 0 35 35" fill="none" xmlns="http://www.w3.org/2000/svg">
<path d="M8.96387 7.1875C8.96387 6.425 9.26677 5.69373 9.80594 5.15457C10.3451 4.6154 11.0764 4.3125 11.8389 4.3125H23.3389C24.1014 4.3125 24.8326 4.6154 25.3718 5.15457C25.911 5.69373 26.2139 6.425 26.2139 7.1875V27.3125C26.2139 28.075 25.911 28.8063 25.3718 29.3454C24.8326 29.8846 24.1014 30.1875 23.3389 30.1875H11.8389C11.0764 30.1875 10.3451 29.8846 9.80594 29.3454C9.26677 28.8063 8.96387 28.075 8.96387 27.3125V7.1875Z" stroke="white" stroke-width="2" stroke-linecap="round" stroke-linejoin="round"/>
<path d="M16.1514 5.75H19.0264" stroke="white" stroke-width="2" stroke-linecap="round" stroke-linejoin="round"/>
<!-- Reset arrow circle -->
<path d="M17.5889 12C15.9889 12 14.5889 13.4 14.5889 15C14.5889 16.6 15.9889 18 17.5889 18C19.1889 18 20.5889 16.6 20.5889 15" stroke="white" stroke-width="1.5" stroke-linecap="round" stroke-linejoin="round" fill="none"/>
<path d="M19.5889 12L20.5889 15L17.5889 14" stroke="white" stroke-width="1.5" stroke-linecap="round" stroke-linejoin="round" fill="white"/>
</svg>